<svg width="1042" height="555" viewBox="0 0 1042 555" fill="none" xmlns="http://www.w3.org/2000/svg">
<g id="img teste">
<g id="mesa">
<path id="Vector" d="M863.1 533.65V546.65L711.18 548.05L709.56 548.08L651.82 548.61L650.44 548.63L632.89 548.78H632.37L525.39 549.77L349.78 551.4H349.63L304.98 551.82L304.5 551.83L106.1 553.65V538.65L152.75 510.65L246.35 509.87L248.35 509.86L249.01 509.85L251.01 509.82L295.95 509.45L297.96 509.44L298.6 509.43L300.6 509.42L315.01 509.3L315.39 509.29L350.94 508.99H351.23L628.63 506.65L635.42 506.6H636.1L641.28 506.55L678.93 506.24L680.93 506.21L682.78 506.19H683.74L695.45 506.1L697.77 506.07L700.88 506.05L710.63 505.96L726.1 505.83L728.1 505.81L731.58 505.79H732.23L806.94 505.15L863.1 533.65Z" fill="#65617D"/>
<path id="Vector_2" opacity="0.2" d="M863.1 533.65V546.65L711.18 548.05L709.56 548.08L651.82 548.61L650.44 548.63L632.89 548.78H632.37L525.39 549.77L349.78 551.4H349.63L304.98 551.82L304.5 551.83L106.1 553.65V538.65L152.75 510.65L246.35 509.87L248.35 509.86L249.01 509.85L251.01 509.82L295.95 509.45L297.96 509.44L298.6 509.43L300.6 509.42L315.01 509.3L315.39 509.29L350.94 508.99H351.23L628.63 506.65L635.42 506.6H636.1L641.28 506.55L678.93 506.24L680.93 506.21L682.78 506.19H683.74L695.45 506.1L697.77 506.07L700.88 506.05L710.63 505.96L726.1 505.83L728.1 505.81L731.58 505.79H732.23L806.94 505.15L863.1 533.65Z" fill="black"/>
<path id="Vector_3" opacity="0.1" d="M863.1 533.65V546.65L711.18 548.05L709.56 548.08L651.82 548.61L650.44 548.63L632.89 548.78H632.37L525.39 549.77L349.78 551.4H349.63L304.98 551.82L304.5 551.83L106.1 553.65V538.65L308.61 537.32H309.09L350.08 537.04H350.27L633.35 535.17H633.64L633.81 535.16H634.28L639.07 535.13H640.53L715.02 534.63L719.42 534.61L720.4 534.6L863.1 533.65Z" fill="black"/>
</g>
<g id="pcs-up">
<g id="pc-direita-up">
<path id="Vector_4" d="M741.93 262.83H722.93V323.83H741.93V262.83Z" fill="#3F3D56"/>
<path id="Vector_5" opacity="0.1" d="M741.93 262.82V266.61L722.93 267V262.82H741.93Z" fill="black"/>
<path id="Vector_6" d="M827.66 259.62C827.687 260.034 827.63 260.45 827.492 260.842C827.355 261.233 827.139 261.593 826.859 261.9C826.579 262.206 826.24 262.453 825.862 262.624C825.484 262.796 825.075 262.89 824.66 262.9L637.46 266.77C636.682 266.786 635.927 266.507 635.347 265.99C634.766 265.472 634.403 264.754 634.33 263.98L618.24 96.7C618.2 96.285 618.245 95.8662 618.372 95.4691C618.499 95.072 618.705 94.7047 618.978 94.3896C619.251 94.0745 619.585 93.8181 619.96 93.636C620.335 93.4539 620.744 93.3498 621.16 93.33L806.94 84.09L808.94 83.99C809.735 83.9481 810.515 84.2167 811.116 84.7391C811.717 85.2615 812.091 85.9969 812.16 86.79L827.66 259.62Z" fill="#65617D"/>
<path id="Vector_7" d="M628.93 103.16L798.6 94.82L812.93 246.82L644.6 250.82L628.93 103.16Z" fill="#36E08F"/>
<path id="Vector_8" opacity="0.1" d="M827.66 259.62C827.687 260.034 827.63 260.45 827.492 260.842C827.355 261.233 827.139 261.593 826.859 261.9C826.579 262.206 826.24 262.453 825.862 262.624C825.484 262.796 825.075 262.89 824.66 262.9L806.94 84.09L808.94 83.99C809.735 83.9481 810.515 84.2167 811.116 84.7391C811.717 85.2615 812.091 85.9969 812.16 86.79L827.66 259.62Z" fill="black"/>
</g>
<g id="pc-meio-up">
<path id="Vector_9" d="M583.94 96.82H389.93C386.986 96.82 384.6 99.2063 384.6 102.15V264.82C384.6 267.764 386.986 270.15 389.93 270.15H583.94C586.884 270.15 589.27 267.764 589.27 264.82V102.15C589.27 99.2063 586.884 96.82 583.94 96.82Z" fill="#65617D"/>
<path id="Vector_10" d="M580.26 108.49H394.26V252.82H580.26V108.49Z" fill="#36E08F"/>
</g>
<g id="pc-esquerda-up">
<path id="Vector_11" d="M230.6 265.83H211.6V323.49H230.6V265.83Z" fill="#3F3D56"/>
<path id="Vector_12" opacity="0.1" d="M230.6 265.82V271.55L211.6 271.06V265.82H230.6Z" fill="black"/>
<path id="Vector_13" opacity="0.1" d="M168.23 87.09L145.66 267.37L142.19 267.28C141.586 267.266 140.991 267.124 140.446 266.865C139.9 266.605 139.415 266.234 139.022 265.774C138.63 265.315 138.339 264.777 138.168 264.198C137.997 263.618 137.95 263.009 138.03 262.41L163.66 90.73C163.823 89.6592 164.385 88.6895 165.232 88.0147C166.079 87.3398 167.15 87.0096 168.23 87.09V87.09Z" fill="black"/>
<path id="Vector_14" d="M355.66 104.4L332.83 268.4C332.685 269.448 332.16 270.405 331.353 271.089C330.547 271.774 329.517 272.137 328.46 272.11L145.66 267.37L142.19 267.28C141.586 267.266 140.991 267.124 140.446 266.865C139.9 266.605 139.415 266.234 139.022 265.774C138.63 265.315 138.339 264.777 138.168 264.198C137.997 263.618 137.95 263.009 138.03 262.41L163.66 90.73C163.825 89.6666 164.383 88.7037 165.224 88.0317C166.064 87.3596 167.126 87.0272 168.2 87.1L351.66 99.52C352.252 99.5543 352.83 99.7109 353.359 99.98C353.887 100.249 354.354 100.625 354.73 101.083C355.105 101.542 355.382 102.073 355.542 102.644C355.702 103.215 355.743 103.813 355.66 104.4V104.4Z" fill="#65617D"/>
<path id="Vector_15" d="M175.93 99.16L156.6 250.49L324.6 255.82L345.26 109.82L175.93 99.16Z" fill="#36E08F"/>
</g>
</g>
<g id="pcs-down">
<g id="pc-direita-down">
<path id="Vector_16" d="M728.1 483.66H680.93V515.16H728.1V483.66Z" fill="#3F3D56"/>
<path id="Vector_17" opacity="0.1" d="M728.1 483.66H680.93V515.16H728.1V483.66Z" fill="black"/>
<path id="Vector_18" d="M726.1 483.66H678.93V515.16H726.1V483.66Z" fill="#3F3D56"/>
<path id="Vector_19" opacity="0.1" d="M741.93 306.41H722.93V323.83H741.93V306.41Z" fill="black"/>
<path id="Vector_20" opacity="0.1" d="M726.1 483.65V490.06L678.93 488.8V483.65H726.1Z" fill="black"/>
<path id="Vector_21" d="M788.35 312.36V485.66C788.337 486.712 787.91 487.717 787.161 488.456C786.412 489.196 785.402 489.61 784.35 489.61V489.61L592.66 484.51C591.634 484.472 590.662 484.04 589.945 483.305C589.229 482.569 588.822 481.587 588.81 480.56V312.36C588.823 311.316 589.243 310.319 589.981 309.581C590.719 308.843 591.716 308.423 592.76 308.41H784.36C785.411 308.413 786.418 308.828 787.164 309.567C787.911 310.306 788.337 311.31 788.35 312.36V312.36Z" fill="#65617D"/>
<path id="Vector_22" d="M775.6 319.15H598.1V467.4L775.6 471.4V319.15Z" fill="#D4DFEC"/>
<path id="Vector_23" opacity="0.1" d="M788.35 312.36V485.66C788.337 486.712 787.91 487.717 787.161 488.456C786.412 489.196 785.402 489.61 784.35 489.61V489.61V308.41C785.402 308.41 786.412 308.824 787.161 309.564C787.91 310.303 788.337 311.308 788.35 312.36Z" fill="black"/>
</g>
<g id="pc-meio-down">
<path id="Vector_24" d="M583.85 312.36V480.56C583.838 481.587 583.431 482.569 582.715 483.305C581.998 484.04 581.026 484.472 580 484.51L388.35 489.61C387.298 489.61 386.288 489.196 385.539 488.456C384.79 487.717 384.363 486.712 384.35 485.66V312.36C384.363 311.316 384.783 310.319 385.521 309.581C386.259 308.843 387.256 308.423 388.3 308.41H579.9C580.944 308.423 581.941 308.843 582.679 309.581C583.417 310.319 583.837 311.316 583.85 312.36V312.36Z" fill="#65617D"/>
<path id="Vector_25" d="M397.1 319.15H574.6V467.4L397.1 471.4V319.15Z" fill="#D4DFEC"/>
</g>
<g id="pc-esquerda-down">
<path id="Vector_26" opacity="0.1" d="M298.1 504.96V508.15C298.101 509.31 297.772 510.446 297.152 511.427C296.533 512.408 295.648 513.192 294.6 513.69L254.5 514.46C253.434 513.971 252.53 513.186 251.897 512.199C251.265 511.211 250.929 510.063 250.93 508.89V505.89L298.1 504.96Z" fill="black"/>
<path id="Vector_27" d="M298.6 515.57L246.35 516.57V507.9L298.6 506.9V515.57Z" fill="#3F3D56"/>
<path id="Vector_28" opacity="0.1" d="M298.6 515.57L246.35 516.57V507.9L298.6 506.9V515.57Z" fill="black"/>
<path id="Vector_29" d="M300.6 515.57L248.35 516.57V507.9L300.6 506.9V515.57Z" fill="#3F3D56"/>
<path id="Vector_30" d="M296.1 483.66V508.15C296.101 509.31 295.772 510.446 295.152 511.427C294.533 512.408 293.648 513.192 292.6 513.69C291.82 514.068 290.967 514.273 290.1 514.29L255.2 515.03C254.268 515.052 253.343 514.857 252.5 514.46C251.434 513.971 250.53 513.186 249.897 512.199C249.265 511.211 248.929 510.063 248.93 508.89V483.66H296.1Z" fill="#3F3D56"/>
<path id="Vector_31" opacity="0.1" d="M296.1 483.66V508.15C296.101 509.31 295.772 510.446 295.152 511.427C294.533 512.408 293.648 513.192 292.6 513.69C291.82 514.068 290.967 514.273 290.1 514.29L255.2 515.03C254.268 515.052 253.343 514.857 252.5 514.46C251.434 513.971 250.53 513.186 249.897 512.199C249.265 511.211 248.929 510.063 248.93 508.89V483.66H296.1Z" fill="black"/>
<path id="Vector_32" d="M298.1 483.66V508.15C298.101 509.31 297.772 510.446 297.152 511.427C296.533 512.408 295.648 513.192 294.6 513.69C293.82 514.068 292.967 514.273 292.1 514.29L257.2 515.03C256.268 515.052 255.343 514.857 254.5 514.46C253.434 513.971 252.53 513.186 251.897 512.199C251.265 511.211 250.929 510.063 250.93 508.89V483.66H298.1Z" fill="#3F3D56"/>
<path id="Vector_33" opacity="0.1" d="M230.6 306.41H211.6V323.49H230.6V306.41Z" fill="black"/>
<path id="Vector_34" opacity="0.1" d="M298.1 483.65V488.62L250.93 489.88V483.65H298.1Z" fill="black"/>
<path id="Vector_35" d="M381.35 312.36V480.56C381.338 481.587 380.931 482.569 380.215 483.305C379.498 484.04 378.526 484.472 377.5 484.51L185.85 489.61H185.8C184.756 489.597 183.759 489.177 183.021 488.439C182.283 487.701 181.863 486.704 181.85 485.66V312.36C181.863 311.316 182.283 310.319 183.021 309.581C183.759 308.843 184.756 308.423 185.8 308.41H377.4C378.444 308.423 379.441 308.843 380.179 309.581C380.917 310.319 381.337 311.316 381.35 312.36V312.36Z" fill="#65617D"/>
<path id="Vector_36" opacity="0.1" d="M185.85 308.41V489.61H185.8C184.756 489.597 183.759 489.177 183.021 488.439C182.283 487.701 181.863 486.704 181.85 485.66V312.36C181.863 311.316 182.283 310.319 183.021 309.581C183.759 308.843 184.756 308.423 185.8 308.41H185.85Z" fill="black"/>
<path id="Vector_37" d="M194.6 319.15H372.1V467.4L194.6 471.4V319.15Z" fill="#D4DFEC"/>
</g>
</g>
<g id="pessoa">
<path id="Vector_38" d="M496.86 321.547C525.209 321.547 548.19 298.566 548.19 270.217C548.19 241.868 525.209 218.887 496.86 218.887C468.511 218.887 445.53 241.868 445.53 270.217C445.53 298.566 468.511 321.547 496.86 321.547Z" fill="#FBBEBE"/>
<path id="Vector_39" d="M548.2 375.217C548.2 375.217 448.7 387.217 458.2 375.217C461.64 370.877 462.59 358.017 462.4 343.367C462.34 338.917 462.18 334.307 461.95 329.717C460.85 307.717 458.2 286.217 458.2 286.217C458.2 286.217 545.2 245.217 535.2 277.717C531.2 290.847 532.51 309.287 535.55 326.597C536.44 331.647 537.47 336.597 538.55 341.297C541.186 352.761 544.407 364.083 548.2 375.217V375.217Z" fill="#FBBEBE"/>
<path id="Vector_40" opacity="0.1" d="M548.2 375.217C548.2 375.217 448.7 387.217 458.2 375.217C461.64 370.877 462.59 358.017 462.4 343.367C477.57 336.887 496.87 341.717 496.87 341.717C517.19 337.667 530.22 338.457 538.55 341.297C541.186 352.761 544.407 364.083 548.2 375.217V375.217Z" fill="black"/>
<path id="Vector_41" d="M359.34 550.587V549.747L534.96 547.837L641.96 546.837H642.26L642.15 548.317L642.3 546.837H642.49V546.667L643.86 533.217L644.38 528.127L644.54 526.537L644.68 525.207L650.86 504.597L657.04 484.017L662.24 466.687L670.18 440.207C670.18 440.207 665.68 429.707 663.18 426.707C660.68 423.707 658.18 403.207 658.18 403.207C658.18 403.207 636.84 382.877 627.51 380.537C623.6 379.537 615.88 378.207 607.68 376.537C604.61 375.917 601.46 375.257 598.43 374.537C596.72 374.147 595.04 373.737 593.43 373.327C590.296 372.544 587.208 371.59 584.18 370.467C582.592 369.89 581.081 369.121 579.68 368.177C572.33 362.787 553.91 362.177 553.2 362.177C553.198 362.154 553.198 362.13 553.2 362.107V362.017C553.226 361.597 553.226 361.177 553.2 360.757C553.2 360.357 553.2 359.887 553.11 359.357C553.11 359.197 553.11 359.027 553.04 358.857C552.99 358.497 552.93 358.117 552.84 357.717C552.81 357.538 552.77 357.361 552.72 357.187C552.43 355.982 552.011 354.812 551.47 353.697C551.4 353.537 551.31 353.367 551.23 353.207C550.74 352.283 550.171 351.403 549.53 350.577C549.4 350.407 549.26 350.227 549.11 350.057C548.291 349.091 547.38 348.207 546.39 347.417C546.12 347.207 545.84 346.987 545.55 346.787C545.388 346.656 545.218 346.536 545.04 346.427L544.15 345.847L543.32 345.367C542.59 344.967 541.82 344.577 540.98 344.207C540.72 344.087 540.44 343.977 540.16 343.867C539.88 343.757 539.44 343.587 539.07 343.447H539.01L538.26 343.147C537.69 342.957 537.11 342.787 536.5 342.617L535.57 342.377L534.57 342.147L533.57 341.937C532.57 341.737 531.5 341.557 530.38 341.417L529.24 341.277L528.07 341.157L526.86 341.057L525.14 340.957L523.14 340.887C514.319 340.886 505.523 341.822 496.9 343.677C490.909 342.344 484.773 341.779 478.64 341.997H477.77L476.77 342.057H476.13L474.84 342.177C474.41 342.177 473.97 342.267 473.54 342.327C473.11 342.387 472.66 342.437 472.23 342.507L471.57 342.617C470.92 342.727 470.26 342.847 469.57 342.987C469.35 343.027 469.13 343.077 468.91 343.137C468.04 343.327 467.17 343.557 466.31 343.817C465.88 343.937 465.45 344.077 465.02 344.227C464.8 344.287 464.59 344.367 464.38 344.447L463.74 344.677L463.11 344.927L462.36 345.227C461.98 345.387 461.61 345.557 461.24 345.737C461.03 345.827 460.82 345.927 460.62 346.037C460.42 346.147 460.21 346.237 460.02 346.347C457.759 347.515 455.669 348.989 453.81 350.727L453.3 351.217L452.8 351.727C452.63 351.897 452.47 352.077 452.31 352.257C451.658 352.97 451.05 353.721 450.49 354.507C450.33 354.717 450.18 354.927 450.03 355.147C449.395 356.083 448.821 357.058 448.31 358.067C448.18 358.307 448.06 358.557 447.94 358.797C447.124 360.487 446.455 362.243 445.94 364.047C445.753 364.714 445.583 365.38 445.43 366.047C445.43 366.047 424.26 375.387 406.7 382.147C402.03 383.947 397.63 385.577 393.95 386.807C392.88 387.167 391.88 387.497 390.95 387.807C388.932 388.536 386.834 389.02 384.7 389.247C383.694 389.264 382.691 389.357 381.7 389.527C373.63 390.837 359.8 396.527 358.29 402.237C358.167 402.693 358.133 403.168 358.19 403.637C358.19 403.637 358.19 403.707 358.19 403.747C359.19 410.747 352.19 409.747 352.19 409.747C352.19 409.747 349.69 428.247 346.19 433.247C343.66 436.847 341.93 444.877 341.71 450.937C341.584 452.825 341.732 454.721 342.15 456.567C342.15 456.617 342.15 456.667 342.15 456.707C342.55 458.047 341.59 461.707 339.96 466.397C338.19 471.547 335.61 477.947 333.13 483.987C329.39 493.107 325.87 501.387 325.65 503.207C325.56 504.017 325.3 505.467 324.94 507.337C323.48 514.957 320.24 529.467 318.64 535.337C317.45 539.717 315.72 545.717 314.53 549.837C314.53 549.957 314.46 550.077 314.43 550.187L359.26 549.747V550.587H359.4H359.34Z" fill="#36E08F"/>
<path id="Vector_42" opacity="0.1" d="M375.7 432.717C375.7 432.717 432.7 462.217 453.2 458.717L375.7 432.717Z" fill="black"/>
<path id="Vector_43" opacity="0.1" d="M491.7 420.717C491.7 420.717 547.2 438.717 565.7 441.217C584.2 443.717 491.7 420.717 491.7 420.717Z" fill="black"/>
<path id="Vector_44" opacity="0.1" d="M553.26 362.797C524.26 368.137 469.66 366.987 446.06 366.177C454.71 335.177 496.89 345.717 496.89 345.717C549.1 335.297 553.1 356.917 553.26 362.797Z" fill="black"/>
<path id="Vector_45" d="M553.26 360.797C524.26 366.137 469.66 364.987 446.06 364.177C454.71 333.177 496.89 343.717 496.89 343.717C549.1 333.297 553.1 354.917 553.26 360.797Z" fill="#36E08F"/>
<path id="Vector_46" d="M707.2 497.467C707.2 497.467 741.36 492.217 742.03 507.217C742.7 522.217 724.61 532.697 724.61 532.697L707.2 497.467Z" fill="#FBBEBE"/>
<path id="Vector_47" opacity="0.1" d="M535.55 326.597C534.081 327.254 532.579 327.835 531.05 328.337C520.27 332.057 509.4 335.807 498.05 337.167C486.7 338.527 474.79 337.327 464.89 331.667C463.851 331.08 462.849 330.429 461.89 329.717C460.79 307.717 458.14 286.217 458.14 286.217C458.14 286.217 545.14 245.217 535.14 277.717C531.16 290.847 532.51 309.287 535.55 326.597Z" fill="black"/>
<path id="Vector_48" d="M482.78 189.987C481.353 190.364 479.857 190.402 478.413 190.098C476.968 189.794 475.614 189.157 474.46 188.237L476.54 191.127C475.314 191.269 474.072 191.14 472.901 190.752C471.73 190.363 470.658 189.723 469.76 188.877C469.571 191.464 469.679 194.064 470.08 196.627C466.638 196.793 463.25 195.73 460.52 193.627C460.467 194.529 460.691 195.426 461.163 196.197C461.635 196.967 462.332 197.575 463.16 197.937C459.703 197.524 456.213 198.383 453.343 200.354C450.472 202.325 448.417 205.272 447.56 208.647L452.78 209.127C448.678 210.003 444.996 212.25 442.34 215.497C440.74 217.497 439.52 220.057 440.22 222.497C440.92 224.937 444.3 226.497 446.14 224.757C443.523 227.881 441.62 231.54 440.567 235.477C439.513 239.414 439.333 243.533 440.04 247.547C440.515 249.257 440.671 251.04 440.5 252.807C440.17 254.457 439.13 255.887 438.61 257.497C437.61 260.417 438.56 263.587 439.45 266.497L444.14 281.917C445.84 287.487 447.53 293.067 449.75 298.457C451.322 301.865 452.659 305.376 453.75 308.967C455.01 313.807 455.06 319.107 457.75 323.337C459.594 325.999 462.058 328.172 464.93 329.667C474.82 335.327 486.77 336.527 498.09 335.167C509.41 333.807 520.27 330.057 531.04 326.337C533.433 325.616 535.729 324.609 537.88 323.337C545.33 318.457 546.99 308.477 548.38 299.687C549.93 289.887 552 280.107 555.67 270.887C557.85 265.397 560.67 259.827 560.19 253.947C559.58 246.137 553.4 239.807 551.87 232.127C551.358 229.56 551.382 226.915 551.94 224.357C552.415 222.833 552.68 221.252 552.73 219.657C552.56 216.437 549.92 213.957 547.44 211.887C542.06 207.394 536.507 203.147 530.78 199.147C530.49 197.147 533.21 196.287 534.44 194.707C536.18 192.477 534.38 188.937 531.74 187.897C529.1 186.857 526.14 187.537 523.39 188.227C523.569 186.819 523.289 185.392 522.592 184.156C521.894 182.92 520.817 181.943 519.519 181.368C518.221 180.794 516.773 180.654 515.39 180.969C514.006 181.285 512.761 182.038 511.84 183.117C511.11 181.442 509.943 179.995 508.462 178.925C506.981 177.856 505.239 177.204 503.42 177.037C496.79 176.517 496.66 181.587 492.42 184.377C488.18 187.167 484.68 183.487 481.42 180.807C480.821 182.322 480.631 183.968 480.87 185.579C481.109 187.191 481.768 188.711 482.78 189.987V189.987Z" fill="#3F3D56"/>
<path id="Vector_49" d="M732.53 527.467C732.53 527.467 731.64 529.587 730 532.657C727.519 537.38 724.499 541.8 721 545.827L720.73 546.117H719.11L661.37 546.647H659.99L659.82 546.447L648.62 533.157L644.4 528.147L644.23 527.937L643.87 527.517L643.67 527.277L643.41 526.967L635.2 517.227L638.2 504.727L643.31 483.667L643.44 483.157L644.44 479.157L645.15 476.157L647.53 466.377L655.69 432.727L670.19 440.227L685.48 467.227L693.69 481.727H698.19C699.04 481.727 700.99 483.367 702.95 485.257C703.65 485.927 704.35 486.637 704.95 487.257C706.73 489.097 708.14 490.677 708.14 490.677C708.14 490.677 715.43 490.837 717.39 496.577C717.491 496.855 717.575 497.139 717.64 497.427C718.291 499.683 719.137 501.878 720.17 503.987C721.46 506.797 723.08 509.987 724.72 513.177C727.77 519.027 730.87 524.597 732.01 526.617L732.15 526.867L732.53 527.467Z" fill="#36E08F"/>
<g id="Group" opacity="0.1">
<path id="Vector_50" opacity="0.1" d="M483.19 186.707C482.213 185.438 481.564 183.947 481.3 182.367C481.059 183.912 481.203 185.492 481.72 186.967C482.216 186.921 482.708 186.834 483.19 186.707Z" fill="black"/>
<path id="Vector_51" opacity="0.1" d="M470.49 193.347C470.301 192.121 470.178 190.886 470.12 189.647C470.12 190.877 470.12 192.117 470.12 193.357L470.49 193.347Z" fill="black"/>
<path id="Vector_52" opacity="0.1" d="M551.99 226.717C552.045 225.826 552.166 224.941 552.35 224.067C552.823 222.546 553.092 220.969 553.15 219.377C553.128 219.02 553.074 218.665 552.99 218.317C552.82 219.237 552.55 220.157 552.35 221.067C551.951 222.922 551.829 224.826 551.99 226.717Z" fill="black"/>
<path id="Vector_53" opacity="0.1" d="M531.19 195.817L532.28 196.607C533.199 195.942 534.059 195.2 534.85 194.387C535.226 193.867 535.459 193.257 535.526 192.618C535.593 191.979 535.491 191.334 535.23 190.747C535.13 190.975 535.003 191.19 534.85 191.387C533.62 192.967 530.9 193.837 531.19 195.817Z" fill="black"/>
<path id="Vector_54" opacity="0.1" d="M449.02 205.437C448.655 206.166 448.364 206.93 448.15 207.717C449.714 206.844 451.399 206.207 453.15 205.827L449.02 205.437Z" fill="black"/>
<path id="Vector_55" opacity="0.1" d="M462.81 194.557C462.153 194.195 461.525 193.784 460.93 193.327C460.905 193.723 460.935 194.12 461.02 194.507C461.617 194.479 462.215 194.495 462.81 194.557V194.557Z" fill="black"/>
<path id="Vector_56" opacity="0.1" d="M560.58 253.477C560.17 258.327 557.91 262.997 556.08 267.597C552.41 276.817 550.34 286.597 548.79 296.407C547.4 305.197 545.79 315.177 538.29 320.047C536.147 321.327 533.853 322.335 531.46 323.047C520.68 326.777 509.81 330.517 498.46 331.877C487.11 333.237 475.2 332.047 465.3 326.387C462.43 324.889 459.966 322.717 458.12 320.057C455.45 315.827 455.4 310.527 454.12 305.687C453.029 302.093 451.692 298.578 450.12 295.167C447.91 289.787 446.21 284.167 444.52 278.637C442.953 273.497 441.39 268.354 439.83 263.207C439.316 261.659 438.935 260.07 438.69 258.457C438.3 261.017 439.06 263.697 439.83 266.207C441.39 271.36 442.953 276.504 444.52 281.637C446.21 287.207 447.91 292.787 450.12 298.167C451.692 301.578 453.029 305.093 454.12 308.687C455.38 313.527 455.43 318.827 458.12 323.057C459.966 325.717 462.43 327.889 465.3 329.387C475.2 335.047 487.14 336.237 498.46 334.877C509.78 333.517 520.64 329.777 531.46 326.047C533.853 325.335 536.147 324.327 538.29 323.047C545.74 318.177 547.4 308.197 548.79 299.407C550.34 289.597 552.41 279.817 556.08 270.597C558.26 265.117 561.08 259.547 560.6 253.657C560.6 253.597 560.58 253.537 560.58 253.477Z" fill="black"/>
<path id="Vector_57" opacity="0.1" d="M440.89 249.607C440.89 249.607 440.89 249.537 440.89 249.497C441.07 247.734 440.914 245.952 440.43 244.247C440.231 243.15 440.1 242.041 440.04 240.927C439.925 243.042 440.056 245.163 440.43 247.247C440.59 248.027 440.77 248.817 440.89 249.607Z" fill="black"/>
<path id="Vector_58" opacity="0.1" d="M443.94 225.147C444.709 223.855 445.582 222.628 446.55 221.477C444.72 223.227 441.34 221.667 440.63 219.237C440.368 220.22 440.368 221.254 440.63 222.237C440.876 222.971 441.312 223.627 441.893 224.138C442.475 224.649 443.181 224.997 443.94 225.147V225.147Z" fill="black"/>
</g>
</g>
<g id="cadeira">
<path id="Vector_59" opacity="0.1" d="M637.03 484.26L636.93 485.69V485.79L636.76 488.09L635.43 506.6L633.82 528.9L633.36 535.18L632.36 548.62V548.79L525.36 549.79L349.77 551.69V552.53H349.63V551.69V551.41L350.08 537.05L350.94 508.99L351.68 485.2L351.75 482.83C351.794 481.4 352.129 479.993 352.734 478.696C353.34 477.4 354.203 476.24 355.272 475.288C356.341 474.336 357.592 473.612 358.95 473.161C360.308 472.709 361.744 472.538 363.17 472.66C367.89 473.06 374.02 473.55 381.35 474.07L384.35 474.29C426.68 477.23 504.91 481.03 583.85 476.29C585.51 476.2 587.18 476.1 588.85 475.98C601.09 475.21 613.32 474.22 625.43 472.98C626.961 472.82 628.508 472.997 629.963 473.499C631.418 474.001 632.746 474.817 633.851 475.887C634.957 476.958 635.815 478.258 636.364 479.696C636.913 481.134 637.141 482.675 637.03 484.21V484.26Z" fill="black"/>
<path id="Vector_60" d="M349.74 552.53V551.69L525.36 549.78L632.36 548.78H632.66V548.61L633.66 535.17L634.09 529.17L635.73 506.56L637.02 488.66V488.22C637.08 487.395 637.043 486.566 636.91 485.75C636.916 485.717 636.916 485.683 636.91 485.65C636.635 483.962 635.948 482.369 634.91 481.01C633.809 479.598 632.366 478.49 630.718 477.79C629.07 477.09 627.271 476.822 625.49 477.01C613.38 478.25 601.15 479.24 588.91 480.01C587.24 480.13 585.57 480.23 583.91 480.32C504.97 485.01 426.74 481.21 384.41 478.32L381.41 478.1C374.08 477.58 367.95 477.1 363.23 476.69C360.633 476.471 358.048 477.221 355.972 478.797C353.896 480.372 352.478 482.66 351.99 485.22C351.889 485.761 351.829 486.31 351.81 486.86L351.13 509.02L350.2 537.09L349.76 551.45V551.73V552.57L349.74 552.53Z" fill="#3F3D56"/>
<path id="Vector_61" opacity="0.1" d="M637.33 491.27L636.1 506.6L634.27 529.45L633.81 535.17L632.81 547.98L632.75 548.62V548.79L632.6 550.27L632.71 548.79H632.42L525.42 549.79L349.77 551.69V551.41L350.26 537.05L351.26 508.99L351.9 490.34C351.931 489.279 352.228 488.243 352.762 487.326C353.297 486.409 354.052 485.64 354.96 485.09C356.092 484.396 357.416 484.081 358.74 484.19C360.84 484.36 363.42 484.56 366.43 484.78C371.32 485.14 377.35 485.56 384.37 486C397.37 486.82 413.68 487.7 432.37 488.42C484.37 490.42 554.57 491.09 621.25 485.25C624.25 484.99 627.35 484.7 630.38 484.41C631.579 484.29 632.788 484.52 633.86 485.07C634.164 485.221 634.452 485.402 634.72 485.61C635.591 486.241 636.28 487.089 636.72 488.07C636.822 488.265 636.906 488.469 636.97 488.68C637.27 489.509 637.393 490.391 637.33 491.27V491.27Z" fill="black"/>
</g>
</g>
</svg>
