<svg width="363" height="98" viewBox="0 0 363 98" fill="none" xmlns="http://www.w3.org/2000/svg">
<g id="logotipoBG">
<g id="logotipo">
<g id="2">
<rect id="Rectangle 5" x="357.353" y="98.0001" width="15.4737" height="5.1579" transform="rotate(-90 357.353 98.0001)" fill="black"/>
<rect id="Rectangle 7" x="298.037" width="64.4737" height="5.1579" fill="black"/>
<rect id="Rectangle 9" x="298.037" y="92.842" width="64.4737" height="5.1579" fill="black"/>
<rect id="Rectangle 11" x="298.037" y="46.421" width="64.4737" height="5.1579" fill="black"/>
<rect id="Rectangle 8" x="357.353" y="51.5791" width="51.5789" height="5.1579" transform="rotate(-90 357.353 51.5791)" fill="black"/>
<rect id="Rectangle 10" x="298.037" y="98.0001" width="51.5789" height="5.1579" transform="rotate(-90 298.037 98.0001)" fill="black"/>
</g>
<g id="4">
<rect id="Rectangle 5_2" x="282.563" y="98.0001" width="98" height="5.1579" transform="rotate(-90 282.563 98.0001)" fill="black"/>
<rect id="Rectangle 7_2" x="223.247" y="46.421" width="64.4737" height="5.1579" fill="black"/>
<rect id="Rectangle 8_2" x="223.247" y="51.5791" width="51.5789" height="5.1579" transform="rotate(-90 223.247 51.5791)" fill="black"/>
</g>
<g id="B">
<g id="letra">
<rect id="Rectangle 3" x="143.3" y="98.0001" width="92.8421" height="5.1579" transform="rotate(-90 143.3 98.0001)" fill="black"/>
<rect id="Rectangle 4" x="143.3" width="64.4737" height="5.1579" fill="black"/>
<rect id="Rectangle 6" x="143.3" y="92.842" width="64.4737" height="5.1579" fill="black"/>
<g id="cutb">
<rect id="Rectangle 13" x="202.8" y="98" width="38" height="5" transform="rotate(-90 202.8 98)" fill="black"/>
<rect id="Rectangle 14" x="202.8" y="38" width="38" height="5" transform="rotate(-90 202.8 38)" fill="black"/>
<rect id="Rectangle 7_3" x="146" y="46" width="40" height="6" fill="black"/>
</g>
</g>
<g id="tri">
<path id="Subtract" fill-rule="evenodd" clip-rule="evenodd" d="M207.8 33.3896L182.833 46.5644L185.167 50.9864L207.8 39.0431V33.3896Z" fill="black"/>
<path id="Subtract_2" fill-rule="evenodd" clip-rule="evenodd" d="M207.773 59.1625L183.103 46.8054L180.864 51.276L207.155 64.4449L207.773 63.2102V59.1625Z" fill="black"/>
</g>
</g>
<g id="A">
<rect id="Rectangle 3_2" x="68.5105" y="98.0001" width="92.8421" height="5.1579" transform="rotate(-90 68.5105 98.0001)" fill="black"/>
<rect id="Rectangle 5_3" x="127.826" y="98.0001" width="92.8421" height="5.1579" transform="rotate(-90 127.826 98.0001)" fill="black"/>
<rect id="Rectangle 4_2" x="68.5105" width="64.4737" height="5.1579" fill="black"/>
<rect id="Rectangle 6_2" x="68.5105" y="46" width="64.4737" height="5.1579" fill="black"/>
</g>
<g id="||">
<g id="slash">
<rect id="Rectangle 3_3" width="98.2193" height="5.75996" transform="matrix(-0.183603 0.983001 -0.986427 -0.164202 57.9702 0.945801)" fill="#36E08F"/>
</g>
<g id="slash_2">
<rect id="Rectangle 3_4" width="98.2193" height="5.75996" transform="matrix(-0.183603 0.983001 -0.986427 -0.164202 23.7151 0.945801)" fill="#36E08F"/>
</g>
</g>
</g>
</g>
</svg>
