<svg width="192" height="192" viewBox="0 0 192 192" fill="none" xmlns="http://www.w3.org/2000/svg">
<g id="moon 1">
<path id="Vector" d="M162.497 114.487C150.719 117.76 138.283 117.846 126.46 114.737C114.638 111.628 103.854 105.434 95.2097 96.7905C86.5658 88.1466 80.3725 77.3621 77.2632 65.5399C74.1539 53.7176 74.24 41.2816 77.5128 29.5035L77.5147 29.5041C65.8977 32.7358 55.3303 38.955 46.8651 47.5421C38.3999 56.1292 32.3324 66.7845 29.2671 78.4465C26.2018 90.1085 26.2456 102.37 29.3943 114.01C32.5429 125.65 38.6865 136.261 47.2129 144.788C55.7393 153.314 66.351 159.457 77.9908 162.606C89.6306 165.754 101.892 165.798 113.554 162.733C125.216 159.667 135.871 153.6 144.458 145.135C153.045 136.669 159.264 126.102 162.496 114.485L162.497 114.487Z" stroke="#36E08F" stroke-width="12" stroke-linecap="round" stroke-linejoin="round"/>
</g>
</svg>
